<svg xmlns="http://www.w3.org/2000/svg" xmlns:xlink="http://www.w3.org/1999/xlink" viewBox="0 0 127.42 127.42"><defs><style>.cls-1{fill:url(#linear-gradient);}.cls-2{fill:#fff;}</style><linearGradient id="linear-gradient" x1="63.71" y1="7.72" x2="63.71" y2="119.42" gradientUnits="userSpaceOnUse"><stop offset="0" stop-color="#9bd0ef"/><stop offset="0.11" stop-color="#90c2e2"/><stop offset="0.32" stop-color="#749ebf"/><stop offset="0.6" stop-color="#476487"/><stop offset="0.86" stop-color="#19294e"/></linearGradient></defs><g id="Layer_2" data-name="Layer 2"><g id="Layer_1-2" data-name="Layer 1"><rect class="cls-1" width="127.42" height="127.42" rx="63.71"/><path class="cls-2" d="M63.71,27a21.81,21.81,0,1,0,21.8,21.8A21.81,21.81,0,0,0,63.71,27Zm0,37.84a16,16,0,1,1,15.87-16A16,16,0,0,1,63.71,64.83Z"/><path class="cls-2" d="M51.64,77.05a1.64,1.64,0,0,1,.22-.93.67.67,0,0,1,.57-.33H75a.65.65,0,0,1,.56.33,1.64,1.64,0,0,1,.23.93v2.88a1.67,1.67,0,0,1-.23.9.65.65,0,0,1-.56.35H52.43a.67.67,0,0,1-.57-.35,1.67,1.67,0,0,1-.22-.9Z"/><path class="cls-2" d="M51.74,87.69a1.23,1.23,0,0,1,.35-.93,1.32,1.32,0,0,1,.9-.32H74.42a1.29,1.29,0,0,1,.9.32,1.2,1.2,0,0,1,.36.93v2.88a1.11,1.11,0,0,1-.36.87,1.25,1.25,0,0,1-.9.33h-18v7.41a1.17,1.17,0,0,1-.35.92,1.34,1.34,0,0,1-.95.33H53a1.28,1.28,0,0,1-.9-.33,1.21,1.21,0,0,1-.35-.92Z"/></g></g></svg>